<?xml version="1.0" encoding="utf-8"?>
<!-- Generator: Adobe Illustrator 16.0.0, SVG Export Plug-In . SVG Version: 6.00 Build 0)  -->
<!DOCTYPE svg PUBLIC "-//W3C//DTD SVG 1.1//EN" "http://www.w3.org/Graphics/SVG/1.1/DTD/svg11.dtd">
<svg version="1.1" id="Calque_1_-_copie" xmlns="http://www.w3.org/2000/svg" xmlns:xlink="http://www.w3.org/1999/xlink" x="0px"
	 y="0px" width="179.33px" height="184.678px" viewBox="-4.934 -4.631 179.33 184.678"
	 enable-background="new -4.934 -4.631 179.33 184.678" xml:space="preserve">
<g id="Calque_1_3_">
	<g id="Export_1_">
		<path id="trace_complet_2_" d="M135.892,37.768c0.602,0,1.397,0.7,1.699,1.3c6.801,11.5,13.602,23,20.5,34.5
			c2.198,3.7,4.5,7.5,6.396,10.702c-14.801-15.202-30-30.802-45.301-46.5C124.593,37.668,130.19,37.668,135.892,37.768z
			 M86.593,7.368c25.799,26.4,51.5,52.9,77.299,79.399c-31-12.202-62-24.399-93.298-36.702
			C75.993,35.668,81.293,21.468,86.593,7.368z M32.393,38.268c0-0.6,0.6-1.3,1.1-1.6c13.601-8.5,27.2-17,40.7-25.4
			c1.2-0.7,2.4-1.5,4-2.5c-19.2,19.8-23.1,23.8-45.899,47.1C32.293,49.868,32.293,44.068,32.393,38.268z M84.593,5.668
			c-11.9,31.9-23.8,63.8-35.8,95.9c-14.101-5.604-28-11-41.601-16.4C31.293,60.368,49.593,41.668,84.593,5.668z M50.093,140.168
			c-3.8,0-7.601-0.102-11.3,0.1c-1.801,0.104-2.7-0.6-3.601-2.1c-8.2-13.9-16.5-27.9-24.7-41.801
			c-0.699-1.102-1.3-2.199-1.899-3.301c15.1,15.602,30.3,31.199,45.8,47.102C52.893,140.168,51.493,140.168,50.093,140.168z
			 M84.093,166.967c-25.8-26.5-51.601-53-77.4-79.398c31,12.199,62,24.398,93.299,36.699
			C94.593,138.568,89.293,152.868,84.093,166.967z M135.793,138.868c-14.303,8.899-28.604,17.899-42.899,26.801
			c-0.5,0.299-1,0.5-1.696,0.899c15.499-15.899,30.797-31.604,46.196-47.399c0,0.601,0.104,1.199,0.104,1.699c0,5,0,10,0,14.899
			C137.491,137.268,136.991,138.068,135.793,138.868z M86.093,168.168c11.897-31.701,23.799-63.701,35.799-95.701
			c14,5.5,27.897,11,41.602,16.4C137.593,115.368,111.793,141.768,86.093,168.168z"/>
	</g>
</g>
</svg>
