<?xml version="1.0" encoding="utf-8"?>
<!-- Generator: Adobe Illustrator 16.0.0, SVG Export Plug-In . SVG Version: 6.00 Build 0)  -->
<!DOCTYPE svg PUBLIC "-//W3C//DTD SVG 1.1//EN" "http://www.w3.org/Graphics/SVG/1.1/DTD/svg11.dtd">
<svg version="1.1" xmlns="http://www.w3.org/2000/svg" xmlns:xlink="http://www.w3.org/1999/xlink" x="0px" y="0px" width="180px"
	 height="180px" viewBox="-4.833 0 180 180" enable-background="new -4.833 0 180 180" xml:space="preserve">
<g id="Calque_1" display="none">
	<g id="Calque_1_1_">
		<g id="Export" display="inline">
			<path id="trace_complet_1_" stroke="#FFFFFF" stroke-miterlimit="10" d="M135.896,39.1c0.601,0,1.399,0.7,1.699,1.3
				c6.801,11.5,13.602,23,20.5,34.5c2.2,3.7,4.5,7.5,6.397,10.702c-14.799-15.202-30-30.802-45.299-46.5
				C124.596,39,130.195,39,135.896,39.1z M86.596,8.7c25.801,26.4,51.5,52.9,77.301,79.399c-31-12.201-62-24.399-93.3-36.701
				C75.996,37,81.297,22.8,86.596,8.7z M32.396,39.6c0-0.6,0.6-1.3,1.1-1.6c13.601-8.5,27.2-17,40.7-25.4c1.2-0.7,2.4-1.5,4-2.5
				c-19.2,19.8-23.1,23.8-45.899,47.1C32.297,51.2,32.297,45.4,32.396,39.6z M84.596,7c-11.9,31.9-23.8,63.8-35.8,95.9
				c-14.101-5.603-28-11-41.601-16.4C31.297,61.7,49.596,43,84.596,7z M50.096,141.5c-3.8,0-7.601-0.101-11.3,0.1
				c-1.801,0.104-2.7-0.6-3.601-2.1c-8.2-13.9-16.5-27.9-24.7-41.801c-0.699-1.101-1.3-2.199-1.899-3.3
				c15.1,15.601,30.3,31.199,45.8,47.101C52.896,141.5,51.496,141.5,50.096,141.5z M84.096,168.299
				c-25.8-26.5-51.601-53-77.4-79.398c31,12.199,62,24.398,93.299,36.699C94.596,139.9,89.297,154.2,84.096,168.299z M135.797,140.2
				c-14.303,8.899-28.603,17.899-42.9,26.801c-0.5,0.299-1,0.5-1.698,0.899c15.499-15.899,30.797-31.603,46.198-47.399
				c0,0.6,0.102,1.199,0.102,1.699c0,5,0,10,0,14.899C137.495,138.6,136.995,139.4,135.797,140.2z M86.096,169.5
				c11.898-31.701,23.801-63.701,35.801-95.701c14,5.5,27.898,11,41.6,16.4C137.596,116.7,111.797,143.1,86.096,169.5z"/>
		</g>
	</g>
	<g id="color" display="inline">
		<g>
			<path d="M84.596,6c-35,36-53.299,54.7-77.401,79.5c13.601,5.4,27.5,10.799,41.601,16.4C60.796,69.8,72.696,37.9,84.596,6z"/>
			<path fill="#FF435C" d="M10.495,96.7c8.2,13.899,16.5,27.899,24.7,41.801c0.901,1.5,1.8,2.201,3.601,2.1
				c3.699-0.199,7.5-0.1,11.3-0.1c1.4,0,2.8,0,4.3,0c-15.5-15.9-30.7-31.5-45.8-47.101C9.195,94.5,9.796,95.6,10.495,96.7z"/>
			<path fill="#DAEF18" d="M74.196,11.6c-13.5,8.4-27.099,16.9-40.7,25.4c-0.5,0.3-1.1,1-1.1,1.6c-0.099,5.8-0.099,11.6-0.099,17.6
				C55.096,32.9,58.996,28.9,78.196,9.1C76.596,10.1,75.396,10.9,74.196,11.6z"/>
			<path fill="#0AE0E5" d="M158.096,73.9c-6.898-11.5-13.699-23-20.5-34.5c-0.301-0.6-1.1-1.3-1.699-1.3
				c-5.701-0.1-11.301-0.1-16.701,0.001c15.299,15.699,30.5,31.299,45.299,46.5C162.596,81.4,160.295,77.6,158.096,73.9z"/>
			<path fill="#9427F4" d="M91.198,166.9c0.698-0.399,1.198-0.601,1.698-0.899c14.299-8.9,28.599-17.9,42.899-26.801
				c1.199-0.8,1.699-1.601,1.701-3.101c0-4.899,0-9.899,0-14.899c0-0.5-0.102-1.101-0.102-1.699
				C121.997,135.299,106.697,151,91.198,166.9z"/>
			<path d="M6.696,87.9c25.799,26.399,51.6,52.899,77.4,79.399c5.201-14.1,10.5-28.399,15.898-42.7
				C68.696,112.299,37.696,100.1,6.696,87.9z"/>
			<path d="M70.596,50.399c31.3,12.301,62.3,24.5,93.3,36.701c-25.801-26.5-51.5-53-77.301-79.399
				C81.297,21.8,75.996,36,70.596,50.399z"/>
			<path d="M86.096,168.5c25.701-26.4,51.5-52.801,77.4-79.3c-13.701-5.4-27.601-10.9-41.601-16.4
				C109.896,104.799,97.995,136.799,86.096,168.5z"/>
		</g>
	</g>
</g>
<g id="Calque_1_-_copie">
	<g id="Calque_1_3_" display="none">
		<g id="Export_1_" display="inline">
			<path id="trace_complet_2_" stroke="#FFFFFF" stroke-miterlimit="10" d="M135.896,39.1c0.601,0,1.399,0.7,1.699,1.3
				c6.801,11.5,13.602,23,20.5,34.5c2.2,3.7,4.5,7.5,6.397,10.702c-14.799-15.202-30-30.802-45.299-46.5
				C124.596,39,130.195,39,135.896,39.1z M86.596,8.7c25.801,26.4,51.5,52.9,77.301,79.399c-31-12.201-62-24.399-93.3-36.701
				C75.996,37,81.297,22.8,86.596,8.7z M32.396,39.6c0-0.6,0.6-1.3,1.1-1.6c13.601-8.5,27.2-17,40.7-25.4c1.2-0.7,2.4-1.5,4-2.5
				c-19.2,19.8-23.1,23.8-45.899,47.1C32.297,51.2,32.297,45.4,32.396,39.6z M84.596,7c-11.9,31.9-23.8,63.8-35.8,95.9
				c-14.101-5.603-28-11-41.601-16.4C31.297,61.7,49.596,43,84.596,7z M50.096,141.5c-3.8,0-7.601-0.101-11.3,0.1
				c-1.801,0.104-2.7-0.6-3.601-2.1c-8.2-13.9-16.5-27.9-24.7-41.801c-0.699-1.101-1.3-2.199-1.899-3.3
				c15.1,15.601,30.3,31.199,45.8,47.101C52.896,141.5,51.496,141.5,50.096,141.5z M84.096,168.299
				c-25.8-26.5-51.601-53-77.4-79.398c31,12.199,62,24.398,93.299,36.699C94.596,139.9,89.297,154.2,84.096,168.299z M135.797,140.2
				c-14.303,8.899-28.603,17.899-42.9,26.801c-0.5,0.299-1,0.5-1.698,0.899c15.499-15.899,30.797-31.603,46.198-47.399
				c0,0.6,0.102,1.199,0.102,1.699c0,5,0,10,0,14.899C137.495,138.6,136.995,139.4,135.797,140.2z M86.096,169.5
				c11.898-31.701,23.801-63.701,35.801-95.701c14,5.5,27.898,11,41.6,16.4C137.596,116.7,111.797,143.1,86.096,169.5z"/>
		</g>
	</g>
	<g id="color_1_">
		<g>
			<path d="M84.667,8.649c-35,36-53.299,54.7-77.401,79.5c13.601,5.4,27.5,10.799,41.601,16.4
				C60.867,72.449,72.767,40.549,84.667,8.649z"/>
			<path fill="#FF435C" d="M10.566,99.349c8.2,13.899,16.5,27.899,24.7,41.801c0.901,1.5,1.8,2.201,3.601,2.1
				c3.699-0.199,7.5-0.1,11.3-0.1c1.4,0,2.8,0,4.3,0c-15.5-15.9-30.7-31.5-45.8-47.101C9.266,97.15,9.867,98.25,10.566,99.349z"/>
			<path fill="#DAEF18" d="M74.267,14.25c-13.5,8.4-27.099,16.9-40.7,25.4c-0.5,0.3-1.1,1-1.1,1.6c-0.099,5.8-0.099,11.6-0.099,17.6
				c22.799-23.3,26.699-27.3,45.899-47.1C76.667,12.75,75.467,13.549,74.267,14.25z"/>
			<path fill="#0AE0E5" d="M158.167,76.549c-6.898-11.5-13.699-23-20.5-34.5c-0.301-0.6-1.1-1.3-1.699-1.3
				c-5.701-0.1-11.301-0.1-16.701,0.001c15.299,15.699,30.5,31.299,45.299,46.5C162.667,84.049,160.367,80.25,158.167,76.549z"/>
			<path fill="#9427F4" d="M91.27,169.549c0.698-0.399,1.198-0.601,1.698-0.899c14.299-8.9,28.599-17.9,42.899-26.801
				c1.199-0.8,1.699-1.601,1.701-3.101c0-4.899,0-9.899,0-14.899c0-0.5-0.102-1.101-0.102-1.699
				C122.068,137.949,106.768,153.65,91.27,169.549z"/>
			<path d="M6.767,90.549c25.799,26.399,51.6,52.899,77.4,79.399c5.201-14.1,10.5-28.399,15.898-42.7
				C68.767,114.949,37.767,102.75,6.767,90.549z"/>
			<path d="M70.667,53.048c31.3,12.301,62.3,24.5,93.3,36.701c-25.801-26.5-51.5-53-77.301-79.399
				C81.368,24.449,76.067,38.649,70.667,53.048z"/>
			<path d="M86.167,171.15c25.701-26.4,51.5-52.801,77.4-79.3c-13.701-5.401-27.601-10.901-41.601-16.401
				C109.967,107.449,98.066,139.449,86.167,171.15z"/>
		</g>
	</g>
</g>
</svg>
