<?xml version="1.0" encoding="utf-8"?>
<!-- Generator: Adobe Illustrator 16.0.0, SVG Export Plug-In . SVG Version: 6.00 Build 0)  -->
<!DOCTYPE svg PUBLIC "-//W3C//DTD SVG 1.1//EN" "http://www.w3.org/Graphics/SVG/1.1/DTD/svg11.dtd">
<svg version="1.1" id="Calque_1" xmlns="http://www.w3.org/2000/svg" xmlns:xlink="http://www.w3.org/1999/xlink" x="0px" y="0px"
	 width="404.915px" height="409.462px" viewBox="0 0 404.915 409.462" enable-background="new 0 0 404.915 409.462"
	 xml:space="preserve">
<g id="Roue_1_">
	
		<circle fill-rule="evenodd" clip-rule="evenodd" fill="none" stroke="#000000" stroke-width="3" stroke-miterlimit="10" cx="202.458" cy="202.456" r="193.379"/>
	<path fill-rule="evenodd" clip-rule="evenodd" d="M193.419,395.838c-0.001-5.016,4.062-9.082,9.074-9.08
		c5.015,0,9.078,4.062,9.08,9.076c-0.001,5.012-4.062,9.078-9.076,9.08C197.485,404.912,193.42,400.85,193.419,395.838z"/>
	<circle fill-rule="evenodd" clip-rule="evenodd" cx="202.42" cy="9.075" r="9.076"/>
	<path fill-rule="evenodd" clip-rule="evenodd" d="M386.76,202.421c-0.001-5.014,4.062-9.08,9.076-9.081
		c5.013,0,9.078,4.063,9.078,9.077c0,5.011-4.063,9.077-9.074,9.079C390.827,211.497,386.762,207.433,386.76,202.421z"/>
	<path fill-rule="evenodd" clip-rule="evenodd" d="M0,202.495c0-5.013,4.063-9.078,9.076-9.078c5.012-0.002,9.078,4.062,9.079,9.072
		c0,5.016-4.063,9.08-9.075,9.082C4.067,211.571,0.002,207.508,0,202.495z"/>
	<circle fill-rule="evenodd" clip-rule="evenodd" cx="339.171" cy="65.689" r="9.077"/>
	<circle fill-rule="evenodd" clip-rule="evenodd" cx="298.859" cy="34.819" r="5.971"/>
	<circle fill-rule="evenodd" clip-rule="evenodd" cx="105.093" cy="370.113" r="5.971"/>
	<circle fill-rule="evenodd" clip-rule="evenodd" cx="105.827" cy="34.913" r="5.971"/>
	<circle fill-rule="evenodd" clip-rule="evenodd" cx="35.805" cy="106.041" r="5.971"/>
	<circle fill-rule="evenodd" clip-rule="evenodd" cx="15.673" cy="252.407" r="5.97"/>
	<circle fill-rule="evenodd" clip-rule="evenodd" cx="34.985" cy="298.813" r="5.971"/>
	<circle fill-rule="evenodd" clip-rule="evenodd" cx="252.846" cy="388.919" r="5.97"/>
	<path fill-rule="evenodd" clip-rule="evenodd" d="M364.506,299.459c-0.001-3.296,2.672-5.97,5.969-5.97
		c3.299-0.001,5.973,2.671,5.972,5.968c0,3.3-2.673,5.974-5.968,5.974C367.18,305.431,364.506,302.759,364.506,299.459z"/>
	<circle fill-rule="evenodd" clip-rule="evenodd" cx="389.24" cy="252.353" r="5.971"/>
	<circle fill-rule="evenodd" clip-rule="evenodd" cx="389.301" cy="152.419" r="5.971"/>
	<circle fill-rule="evenodd" clip-rule="evenodd" cx="369.609" cy="105.492" r="5.971"/>
	<path fill-rule="evenodd" clip-rule="evenodd" d="M10.01,152.007c0-3.299,2.673-5.973,5.97-5.971
		c3.297-0.002,5.972,2.671,5.972,5.967c0,3.301-2.673,5.975-5.969,5.973C12.685,157.978,10.01,155.304,10.01,152.007z"/>
	<circle fill-rule="evenodd" clip-rule="evenodd" cx="152.756" cy="15.766" r="5.97"/>
	<circle fill-rule="evenodd" clip-rule="evenodd" cx="151.993" cy="388.673" r="5.971"/>
	<circle fill-rule="evenodd" clip-rule="evenodd" cx="252.082" cy="15.198" r="5.971"/>
	<circle fill-rule="evenodd" clip-rule="evenodd" cx="299.631" cy="370.333" r="5.971"/>
	<circle fill-rule="evenodd" clip-rule="evenodd" cx="65.745" cy="339.222" r="9.077"/>
	<circle fill-rule="evenodd" clip-rule="evenodd" cx="339.225" cy="339.168" r="9.076"/>
	<circle fill-rule="evenodd" clip-rule="evenodd" cx="65.692" cy="65.743" r="9.077"/>
</g>
</svg>
